<?xml version="1.0" standalone="no"?>
<!DOCTYPE svg PUBLIC "-//W3C//DTD SVG 20010904//EN"
 "http://www.w3.org/TR/2001/REC-SVG-20010904/DTD/svg10.dtd">
<svg version="1.0" xmlns="http://www.w3.org/2000/svg"
 width="1238.000000pt" height="1238.000000pt" viewBox="0 0 1238.000000 1238.000000"
 preserveAspectRatio="xMidYMid meet">
<metadata>
Created by potrace 1.14, written by Peter Selinger 2001-2017
</metadata>
<g transform="translate(0.000000,1238.000000) scale(0.100000,-0.100000)"
fill="#000000" stroke="none">
<path d="M5540 12077 c-3 -3 -28 -8 -56 -11 -49 -5 -133 -32 -144 -46 -3 -4
-39 -31 -80 -60 -127 -89 -261 -198 -369 -298 -20 -18 -88 -60 -152 -92 -143
-74 -215 -120 -338 -217 -116 -92 -220 -195 -286 -283 -43 -58 -187 -222 -319
-365 -26 -27 -63 -75 -84 -105 -20 -30 -61 -81 -90 -113 -114 -127 -191 -264
-237 -424 -14 -48 -34 -110 -44 -138 -21 -56 -47 -159 -57 -220 -3 -22 -8 -43
-10 -46 -6 -10 -17 -100 -18 -149 0 -25 -5 -48 -11 -52 -5 -4 -11 -31 -13 -60
-1 -29 -5 -91 -8 -138 -3 -47 -6 -127 -8 -178 -1 -52 -7 -97 -12 -100 -5 -4
-11 -25 -12 -47 -4 -84 -10 -144 -15 -152 -2 -4 -5 -34 -5 -66 0 -32 -5 -64
-11 -71 -6 -7 -11 -24 -11 -37 0 -26 -9 -191 -17 -306 -3 -40 -9 -73 -14 -73
-5 0 -9 -10 -9 -21 0 -29 -21 -99 -30 -99 -4 0 -10 -14 -14 -31 -3 -17 -15
-43 -26 -59 -11 -15 -20 -33 -20 -39 0 -6 -4 -11 -10 -11 -5 0 -10 -5 -10 -11
0 -13 -86 -116 -120 -144 -41 -33 -140 -139 -140 -150 0 -6 -8 -15 -19 -22
-15 -10 -36 0 -139 67 -95 62 -123 85 -128 107 -4 15 -22 61 -41 101 -18 39
-33 75 -33 79 0 9 -76 156 -122 235 -43 75 -82 119 -148 168 -25 18 -67 54
-95 80 -27 25 -66 53 -85 61 -47 20 -135 17 -250 -6 -169 -35 -220 -58 -240
-104 -7 -17 -17 -28 -22 -25 -5 3 -12 -3 -15 -15 -3 -12 -9 -21 -13 -21 -9 0
-68 -116 -71 -140 -3 -22 19 -71 39 -86 15 -11 17 -29 14 -132 -3 -115 -2
-121 20 -136 20 -14 22 -25 23 -106 2 -78 5 -93 24 -114 32 -34 190 -70 306
-71 95 0 102 3 162 64 18 19 23 21 23 7 0 -9 5 -16 10 -16 6 0 10 -7 10 -15 0
-8 4 -15 9 -15 5 0 7 -9 4 -19 -3 -13 4 -29 18 -44 13 -13 25 -32 27 -43 5
-38 9 -46 23 -55 8 -5 11 -9 6 -9 -4 0 0 -15 10 -32 9 -18 18 -36 19 -40 1 -5
3 -10 4 -13 1 -3 4 -9 5 -15 1 -5 3 -11 5 -12 1 -2 3 -11 5 -20 2 -10 13 -31
25 -48 12 -17 19 -34 16 -37 -3 -4 1 -15 11 -25 9 -10 13 -18 10 -18 -7 0 9
-32 37 -72 10 -16 16 -34 13 -41 -3 -7 3 -19 13 -25 10 -6 23 -27 30 -47 6
-19 16 -33 21 -30 5 4 9 -1 9 -9 0 -8 16 -32 36 -53 20 -21 41 -50 46 -65 6
-16 13 -26 17 -23 5 2 14 -7 21 -20 7 -14 20 -25 27 -25 8 0 12 -4 9 -9 -9
-13 109 -128 154 -151 22 -11 40 -24 40 -28 0 -12 76 -53 83 -45 4 3 9 -2 13
-11 3 -9 12 -16 19 -16 17 0 27 -16 29 -44 1 -15 7 -20 21 -18 11 1 34 4 50 6
17 2 44 9 60 17 17 7 35 14 40 15 32 6 55 18 55 27 0 6 3 8 6 4 8 -7 44 24 44
39 0 6 11 19 24 29 14 11 22 24 18 33 -3 10 -1 13 6 8 11 -6 16 6 10 19 -2 2
7 11 18 19 12 9 27 29 34 47 11 26 15 28 23 14 5 -9 11 -42 13 -73 6 -85 6
-86 14 -97 7 -10 13 -33 26 -100 3 -16 7 -34 8 -40 1 -5 8 -20 14 -32 7 -13
10 -23 6 -23 -3 0 -1 -6 5 -13 6 -8 8 -17 5 -20 -4 -4 2 -19 12 -34 10 -15 17
-31 16 -35 -1 -5 3 -8 9 -8 6 0 9 -7 5 -15 -3 -8 2 -21 10 -30 9 -8 17 -21 19
-28 9 -37 18 -57 26 -57 8 0 25 -67 21 -82 -1 -5 4 -8 12 -8 9 0 17 -15 21
-40 4 -22 15 -50 26 -64 10 -13 19 -28 19 -33 0 -4 6 -19 13 -33 7 -14 19 -44
26 -67 8 -24 18 -43 23 -43 4 0 8 -6 8 -14 0 -7 9 -25 20 -38 10 -14 17 -28
13 -31 -3 -4 -1 -13 5 -20 7 -8 9 -16 6 -19 -3 -4 3 -23 14 -45 11 -21 20 -41
21 -45 1 -5 1 -9 2 -10 0 -2 2 -12 3 -23 6 -52 18 -95 25 -95 4 0 8 -6 9 -12
1 -20 7 -42 13 -53 3 -5 5 -22 4 -37 0 -16 2 -28 6 -28 3 0 7 -42 9 -92 2
-118 7 -202 14 -253 3 -22 8 -67 11 -100 3 -33 8 -71 10 -85 2 -14 7 -61 10
-105 14 -187 58 -430 93 -521 43 -109 130 -233 252 -360 51 -53 64 -75 98
-166 22 -57 43 -120 47 -139 24 -112 113 -331 177 -434 31 -50 145 -168 207
-215 19 -14 41 -32 50 -40 9 -8 29 -21 44 -29 15 -8 27 -18 27 -23 0 -4 6 -8
13 -8 7 0 24 -11 39 -25 15 -14 30 -25 34 -25 4 0 21 -11 38 -24 72 -54 194
-102 284 -111 32 -3 73 -8 92 -10 19 -3 58 -7 85 -11 91 -10 158 -32 212 -70
29 -20 53 -40 53 -45 0 -5 5 -9 11 -9 9 0 98 -66 230 -170 24 -19 47 -124 55
-252 10 -159 19 -217 39 -258 7 -14 15 -72 18 -130 3 -58 11 -161 17 -230 5
-69 12 -148 14 -176 4 -54 35 -135 64 -167 13 -14 16 -36 15 -99 -2 -137 26
-195 165 -333 91 -91 141 -137 203 -186 24 -19 46 -37 47 -41 2 -5 10 -8 18
-8 7 0 19 -9 26 -20 7 -11 17 -20 22 -20 5 0 17 -6 25 -14 9 -8 41 -27 71 -43
61 -33 163 -44 223 -24 30 10 43 7 128 -33 118 -56 178 -67 249 -49 30 7 59
18 66 24 6 5 26 11 44 14 52 6 94 17 115 28 11 6 22 11 25 12 38 3 218 173
228 216 2 8 7 16 10 19 4 3 8 11 10 19 1 7 15 29 31 50 29 37 60 106 67 151 3
14 7 32 11 40 3 8 7 22 8 30 1 8 6 35 11 60 10 55 11 222 1 270 -23 115 -73
243 -124 317 -44 64 -69 70 -78 16 -13 -84 -30 -126 -76 -196 -49 -75 -96
-115 -161 -138 l-37 -13 -63 62 c-34 33 -86 76 -113 94 -36 23 -68 58 -109
118 -52 76 -58 90 -58 138 -1 28 -4 52 -8 52 -4 0 -8 30 -8 66 0 37 -4 69 -8
73 -5 3 -9 15 -8 26 0 11 -2 25 -5 30 -3 6 -6 16 -8 24 -1 8 -6 17 -12 20 -10
6 -22 48 -24 84 -1 9 -5 17 -9 17 -4 0 -8 7 -8 15 0 23 -39 96 -67 127 -14 14
-24 28 -22 30 4 6 -69 77 -74 71 -3 -3 -11 4 -18 15 -7 11 -19 18 -26 15 -7
-3 -13 0 -13 6 0 5 -13 26 -30 44 -16 19 -30 40 -30 46 0 6 -4 11 -10 11 -5 0
-10 5 -10 11 0 6 -11 25 -25 43 -14 18 -25 38 -25 44 0 7 -4 12 -9 12 -9 0
-20 22 -22 45 0 6 -5 15 -10 21 -14 18 -65 184 -83 273 -21 102 -50 162 -108
221 -82 84 -92 90 -266 166 -26 11 -40 28 -64 82 -98 217 -137 281 -216 353
-84 77 -152 120 -215 135 -18 4 -35 9 -39 10 -5 1 -23 2 -42 3 l-34 1 5 93 c3
81 -6 219 -23 327 -3 19 -8 86 -11 149 l-6 113 24 -7 c13 -4 26 -12 27 -16 2
-5 9 -9 15 -9 6 0 18 -6 26 -13 9 -8 32 -20 51 -27 19 -8 37 -17 40 -21 3 -3
25 -16 50 -27 25 -12 68 -35 95 -51 28 -17 74 -42 103 -56 28 -14 52 -30 52
-36 0 -6 5 -7 10 -4 6 4 22 -1 36 -10 13 -9 29 -13 34 -10 5 3 12 -1 17 -9 4
-8 10 -14 13 -14 13 2 50 -14 50 -23 0 -5 3 -8 8 -8 4 1 9 0 12 -1 5 -2 36 -8
69 -13 10 -2 30 -11 45 -20 14 -10 26 -15 26 -11 0 4 6 2 13 -3 6 -6 22 -9 35
-8 12 1 22 -4 22 -11 0 -6 12 -12 28 -12 29 -1 84 -8 92 -13 7 -3 23 -6 38 -8
7 0 10 -6 7 -11 -4 -7 7 -11 32 -11 130 1 157 -18 228 -166 8 -18 20 -33 25
-33 6 0 10 -6 10 -13 0 -7 25 -37 55 -67 30 -30 55 -50 55 -46 0 5 11 -4 25
-20 14 -16 25 -25 25 -21 0 4 10 2 23 -5 12 -6 30 -12 39 -13 10 -1 42 -25 73
-54 30 -29 60 -49 65 -46 6 3 10 -1 10 -9 0 -9 7 -16 15 -16 15 0 55 -19 65
-31 9 -11 103 -28 154 -28 27 0 68 4 91 9 51 12 170 79 206 117 50 53 117 118
168 163 28 25 51 49 51 54 0 4 11 21 25 38 14 16 25 36 25 43 0 26 36 34 151
32 85 -1 126 3 162 16 26 9 70 17 97 17 28 0 50 4 50 9 0 4 26 11 58 14 31 4
68 9 82 13 14 3 40 5 58 5 17 0 32 4 32 9 0 6 9 10 21 10 25 0 54 -62 63 -132
3 -27 9 -69 12 -95 7 -52 31 -105 75 -168 16 -22 54 -114 84 -204 55 -161 110
-278 193 -414 23 -37 42 -69 42 -71 0 -5 84 -135 103 -158 22 -29 92 -101 126
-131 50 -44 209 -117 255 -117 7 0 33 -15 57 -33 72 -55 134 -76 240 -80 51
-2 125 2 164 8 39 7 89 11 111 10 42 -3 133 13 194 35 97 35 216 145 240 221
9 28 35 67 72 105 44 48 59 71 64 103 4 22 10 41 14 41 4 0 10 18 13 39 2 21
14 48 26 60 12 12 21 30 21 41 0 11 13 32 30 46 65 58 74 166 22 272 -45 92
-175 210 -238 215 l-29 2 -1 -66 c0 -55 -17 -129 -30 -129 -1 0 -15 5 -31 12
-44 18 -54 19 -129 23 -39 1 -81 8 -95 16 -13 7 -30 14 -38 15 -7 2 -34 7 -60
13 -25 6 -60 12 -77 15 -21 2 -44 18 -67 42 -28 31 -37 51 -46 107 -6 38 -27
109 -46 159 -65 167 -257 443 -397 570 -45 40 -50 49 -39 62 8 9 19 16 25 16
6 0 26 16 43 35 18 19 35 35 38 35 3 0 27 21 53 47 27 27 53 50 58 52 19 7 72
59 67 65 -4 3 3 6 14 6 21 0 263 233 263 254 0 6 16 28 35 48 18 21 32 38 30
38 -3 0 9 22 26 50 17 27 28 54 24 60 -3 5 -2 10 2 10 11 0 42 52 46 78 2 11
9 27 16 36 8 9 11 19 8 22 -3 4 0 13 8 21 8 8 15 25 15 38 0 13 5 27 11 31 6
3 9 15 6 25 -3 11 -1 19 4 19 5 0 9 11 9 24 0 14 6 31 14 38 7 8 17 38 21 66
4 29 11 52 16 52 5 0 9 7 9 15 0 7 8 19 18 24 9 6 13 11 8 11 -5 0 -3 7 4 15
6 8 9 19 6 24 -4 5 -2 12 2 15 5 3 8 15 7 28 -1 13 3 26 9 30 6 4 12 27 14 50
1 24 4 70 7 103 3 33 7 81 8 108 1 26 6 47 10 47 5 0 5 4 2 10 -3 6 -1 10 4
10 6 0 11 10 11 23 0 12 2 58 5 102 13 172 7 678 -8 750 -3 11 -8 47 -12 80
-3 33 -8 74 -11 91 -2 18 -27 121 -55 230 -40 159 -61 220 -104 306 -30 60
-51 108 -47 108 4 0 0 5 -8 10 -8 5 -15 13 -15 17 -2 25 -18 53 -31 53 -8 0
-14 7 -14 15 0 9 -25 41 -55 71 -30 31 -55 53 -55 49 0 -5 -18 10 -40 33 -22
22 -40 38 -40 35 0 -3 -8 3 -17 13 -62 67 -293 188 -384 200 -103 15 -111 4
-60 -79 68 -111 97 -177 130 -292 60 -213 100 -531 78 -625 -3 -14 -9 -43 -12
-65 -9 -64 -23 -122 -34 -140 -3 -5 -6 -14 -7 -20 -3 -12 -67 -188 -85 -230
-7 -16 -13 -32 -14 -35 -1 -3 -10 -23 -20 -45 -10 -22 -18 -44 -17 -48 1 -4
-4 -10 -12 -13 -8 -3 -13 -11 -10 -18 3 -7 -2 -19 -10 -26 -9 -7 -13 -16 -10
-21 3 -5 0 -9 -5 -9 -6 0 -11 -5 -11 -11 0 -7 -21 -43 -47 -82 -27 -38 -52
-77 -58 -85 -18 -28 -32 -41 -39 -35 -3 4 -6 0 -6 -8 -1 -17 -45 -69 -60 -69
-5 0 -10 -6 -10 -14 0 -8 -4 -16 -9 -18 -7 -3 -40 -31 -158 -135 -14 -13 -32
-23 -40 -23 -8 0 -12 -4 -9 -9 3 -5 -8 -14 -24 -21 -17 -7 -30 -17 -30 -22 0
-5 -4 -7 -9 -4 -5 4 -11 2 -13 -2 -4 -11 -99 -71 -163 -102 -27 -14 -53 -29
-56 -34 -4 -5 -12 -5 -18 -2 -6 4 -11 3 -11 -3 0 -11 -106 -47 -171 -58 -54
-9 -392 -9 -472 1 -33 3 -68 11 -78 17 -10 5 -19 6 -19 2 0 -4 -4 -3 -8 2 -4
6 -24 19 -44 29 -21 11 -38 23 -38 28 0 5 -4 7 -9 4 -4 -3 -19 4 -32 15 -13
11 -36 28 -51 37 -16 9 -28 20 -28 24 0 4 -5 8 -10 8 -19 0 -199 172 -247 236
-27 36 -85 102 -115 132 -12 12 -19 22 -15 22 4 0 -7 13 -23 29 -17 15 -30 32
-30 36 0 4 -15 22 -32 41 -18 18 -44 48 -58 65 -14 17 -44 52 -67 77 -24 24
-43 46 -43 48 0 11 -129 132 -134 127 -3 -4 -6 1 -6 10 0 10 -3 17 -7 17 -5 0
-24 15 -45 33 -20 17 -52 46 -72 62 -20 17 -36 36 -36 42 0 7 -5 12 -11 10 -6
-1 -16 6 -22 16 -7 10 -32 38 -55 62 -27 27 -41 49 -36 56 4 8 3 9 -5 5 -7 -5
-59 40 -139 121 -113 114 -192 210 -302 367 -19 27 -49 65 -67 85 -45 50 -79
145 -107 301 -40 224 -79 305 -209 439 -76 78 -133 116 -214 141 -37 11 -84
36 -115 60 -66 53 -144 92 -236 119 -69 21 -75 25 -106 74 -128 203 -137 445
-27 708 35 84 57 104 211 199 47 29 110 70 140 91 47 33 66 39 125 45 156 13
242 46 346 130 44 35 84 64 89 64 6 0 10 5 10 10 0 6 5 10 12 10 6 0 25 10 42
23 17 13 39 26 49 30 10 4 16 11 13 15 -3 5 11 14 30 21 18 7 34 17 34 22 0 5
9 9 19 9 11 0 27 10 35 22 9 12 16 18 16 13 0 -6 7 -1 15 9 8 11 15 16 15 11
0 -4 8 -1 18 7 31 27 108 68 115 61 4 -3 7 -1 7 5 0 7 4 12 10 12 5 0 18 7 27
15 10 8 21 15 25 15 5 0 33 16 63 35 30 20 57 35 60 35 3 0 6 0 8 1 1 0 11 2
21 4 10 2 22 7 25 12 3 5 13 9 21 9 25 1 70 16 70 23 0 4 16 7 35 6 19 -1 35
1 35 5 0 4 18 6 41 6 22 -1 43 2 45 6 3 5 18 8 35 8 16 0 29 4 29 9 0 4 10 8
23 8 12 0 33 4 47 10 45 20 65 26 78 24 6 -1 12 3 12 9 0 5 3 9 8 8 4 -1 21 4
37 12 56 24 90 38 113 45 12 3 22 10 22 15 0 5 19 14 41 20 65 18 179 96 179
123 0 10 60 72 70 72 7 0 52 47 107 110 10 11 17 24 15 29 -1 4 6 16 18 26 11
9 20 22 20 29 0 6 5 11 11 11 5 0 7 4 4 10 -3 5 6 21 20 34 15 14 26 27 25 31
-2 10 56 72 78 84 11 6 32 11 46 11 14 0 26 4 26 9 0 6 8 10 18 11 93 4 112 6
112 13 0 4 23 7 50 7 28 0 50 4 50 9 0 4 16 7 35 5 19 -1 35 1 35 5 0 8 98 31
143 34 15 1 27 4 27 8 0 3 12 6 28 6 15 -1 38 5 52 13 14 7 26 13 28 12 1 -1
4 -1 7 -1 3 1 8 2 13 3 19 5 99 29 112 34 8 3 20 6 25 8 46 12 340 137 376
160 97 61 217 184 259 264 16 29 30 100 21 100 -3 0 -12 14 -20 31 -7 16 -30
40 -50 53 -40 25 -255 82 -341 90 -158 15 -383 21 -440 11 -14 -2 -75 -11
-135 -20 -145 -20 -391 -85 -626 -163 l-116 -38 -13 45 c-32 109 -131 143
-276 96 -23 -8 -53 -12 -65 -10 -24 5 -225 51 -264 61 -46 12 -244 20 -455 19
-230 -2 -280 -9 -360 -48 -62 -31 -111 -31 -227 1 -166 46 -264 71 -313 82
-55 11 -253 24 -260 17z"/>
</g>
</svg>
